pinch_force_states
version=1
nRows=11
nColumns=45
inDegrees=yes

# SIMM Motion File Header:
name pinch_force_states
datacolumns 45
datarows 11
otherdata 1
range 0.15009746 0.15109746
endheader
time	deviation	flexion	wrist_hand_r1	wrist_hand_r3	cmc_flexion	cmc_abduction	mp_flexion	ip_flexion	deviation_u	flexion_u	wrist_hand_r1_u	wrist_hand_r3_u	cmc_flexion_u	cmc_abduction_u	mp_flexion_u	ip_flexion_u	ECRL.activation	ECRL.fiber_length	ECRB.activation	ECRB.fiber_length	ECU.activation	ECU.fiber_length	FCR.activation	FCR.fiber_length	FCU.activation	FCU.fiber_length	EPL.activation	EPL.fiber_length	EPB.activation	EPB.fiber_length	FPL.activation	FPL.fiber_length	APL.activation	APL.fiber_length	APB.activation	APB.fiber_length	FPB.activation	FPB.fiber_length	OPP.activation	OPP.fiber_length	ADPt.activation	ADPt.fiber_length	ADPo.activation	ADPo.fiber_length
      0.15009746	      1.32732589	     -3.25438092	      1.77619963	     -1.62719046	    -13.08511461	    -12.49820530	     15.55619329	     47.31666555	      4.93442116	     -4.04437390	      6.50957375	     -2.02218695	      3.53171429	     12.52185341	    -15.39575364	     18.82857286	      0.01238483	      0.06428941	      0.36622056	      0.05509187	      0.99862122	      0.05902667	      0.01000000	      0.05134622	      0.60768366	      0.03030915	      0.47396701	      0.05260375	      0.07694563	      0.06428556	      1.00000000	      0.05425842	      0.01293340	      0.07137429	      0.08647987	      0.05285808	      0.12944159	      0.05070168	      0.51645636	      0.04473315	      0.99666356	      0.03908433	      0.87323913	      0.03227138
      0.15019746	      1.32781915	     -3.25478642	      1.77685034	     -1.62739321	    -13.08476098	    -12.49695134	     15.55465380	     47.31854888	      4.93071290	     -4.06566671	      6.50461227	     -2.03283336	      3.54086515	     12.55733384	    -15.39404414	     18.83792326	      0.01238483	      0.06428957	      0.36622056	      0.05509194	      0.99862122	      0.05902633	      0.01000000	      0.05134633	      0.60768366	      0.03030903	      0.47396701	      0.05260391	      0.07694563	      0.06428552	      1.00000000	      0.05425859	      0.01293340	      0.07137443	      0.08647987	      0.05285796	      0.12944159	      0.05070182	      0.51645636	      0.04473311	      0.99666356	      0.03908458	      0.87323913	      0.03227163
      0.15029746	      1.32831204	     -3.25519403	      1.77750056	     -1.62759701	    -13.08440645	    -12.49569387	     15.55311448	     47.32043313	      4.92713882	     -4.08635530	      6.49982794	     -2.04317765	      3.54976019	     12.59182860	    -15.39244685	     18.84705358	      0.01238483	      0.06428972	      0.36622056	      0.05509202	      0.99862122	      0.05902599	      0.01000000	      0.05134645	      0.60768366	      0.03030891	      0.47396701	      0.05260406	      0.07694563	      0.06428548	      1.00000000	      0.05425876	      0.01293340	      0.07137457	      0.08647987	      0.05285784	      0.12944159	      0.05070196	      0.51645636	      0.04473308	      0.99666356	      0.03908484	      0.87323913	      0.03227188
      0.15039746	      1.32880458	     -3.25560367	      1.77815031	     -1.62780184	    -13.08405104	    -12.49443300	     15.55157531	     47.32231828	      4.92369797	     -4.10643912	      6.49521952	     -2.05321956	      3.55839933	     12.62533594	    -15.39096006	     18.85596162	      0.01238483	      0.06428988	      0.36622056	      0.05509210	      0.99862122	      0.05902565	      0.01000000	      0.05134656	      0.60768366	      0.03030879	      0.47396701	      0.05260422	      0.07694563	      0.06428544	      1.00000000	      0.05425893	      0.01293340	      0.07137471	      0.08647987	      0.05285772	      0.12944159	      0.05070210	      0.51645636	      0.04473304	      0.99666356	      0.03908509	      0.87323913	      0.03227214
      0.15049746	      1.32929679	     -3.25601530	      1.77879961	     -1.62800765	    -13.08369477	    -12.49316884	     15.55003628	     47.32420431	      4.92038939	     -4.12591773	      6.49078574	     -2.06295887	      3.56678258	     12.65785427	    -15.38958205	     18.86464524	      0.01238483	      0.06429004	      0.36622056	      0.05509217	      0.99862122	      0.05902531	      0.01000000	      0.05134668	      0.60768366	      0.03030867	      0.47396701	      0.05260438	      0.07694563	      0.06428540	      1.00000000	      0.05425910	      0.01293340	      0.07137485	      0.08647987	      0.05285760	      0.12944159	      0.05070224	      0.51645636	      0.04473300	      0.99666356	      0.03908535	      0.87323913	      0.03227239
      0.15059746	      1.32978866	     -3.25642884	      1.77944848	     -1.62821442	    -13.08333769	    -12.49190147	     15.54849739	     47.32609120	      4.91721212	     -4.14479083	      6.48652530	     -2.07239542	      3.57490994	     12.68938223	    -15.38831109	     18.87310237	      0.01238483	      0.06429019	      0.36622056	      0.05509225	      0.99862122	      0.05902497	      0.01000000	      0.05134680	      0.60768366	      0.03030855	      0.47396701	      0.05260454	      0.07694563	      0.06428536	      1.00000000	      0.05425928	      0.01293340	      0.07137499	      0.08647987	      0.05285748	      0.12944159	      0.05070238	      0.51645636	      0.04473296	      0.99666356	      0.03908560	      0.87323913	      0.03227265
      0.15069746	      1.33028023	     -3.25684424	      1.78009692	     -1.62842212	    -13.08297980	    -12.49063099	     15.54695862	     47.32797893	      4.91416516	     -4.16305821	      6.48243689	     -2.08152910	      3.58278151	     12.71991863	    -15.38714546	     18.88133101	      0.01238483	      0.06429035	      0.36622056	      0.05509233	      0.99862122	      0.05902463	      0.01000000	      0.05134691	      0.60768366	      0.03030843	      0.47396701	      0.05260470	      0.07694563	      0.06428532	      1.00000000	      0.05425945	      0.01293340	      0.07137513	      0.08647987	      0.05285736	      0.12944159	      0.05070252	      0.51645636	      0.04473292	      0.99666356	      0.03908586	      0.87323913	      0.03227290
      0.15079746	      1.33077150	     -3.25726143	      1.78074497	     -1.62863071	    -13.08262114	    -12.48935752	     15.54541996	     47.32986746	      4.91124752	     -4.18071976	      6.47851920	     -2.09035988	      3.59039739	     12.74946246	    -15.38608343	     18.88932919	      0.01238483	      0.06429050	      0.36622056	      0.05509240	      0.99862122	      0.05902429	      0.01000000	      0.05134703	      0.60768366	      0.03030832	      0.47396701	      0.05260486	      0.07694563	      0.06428528	      1.00000000	      0.05425962	      0.01293340	      0.07137527	      0.08647987	      0.05285724	      0.12944159	      0.05070266	      0.51645636	      0.04473288	      0.99666356	      0.03908611	      0.87323913	      0.03227316
      0.15089746	      1.33126249	     -3.25768036	      1.78139263	     -1.62884018	    -13.08226173	    -12.48808113	     15.54388140	     47.33175679	      4.90845818	     -4.19777551	      6.47477087	     -2.09888776	      3.59775776	     12.77801293	    -15.38512326	     18.89709504	      0.01238483	      0.06429065	      0.36622056	      0.05509248	      0.99862122	      0.05902395	      0.01000000	      0.05134715	      0.60768366	      0.03030820	      0.47396701	      0.05260501	      0.07694563	      0.06428525	      1.00000000	      0.05425979	      0.01293340	      0.07137541	      0.08647987	      0.05285712	      0.12944159	      0.05070280	      0.51645636	      0.04473284	      0.99666356	      0.03908637	      0.87323913	      0.03227341
      0.15099746	      1.33175320	     -3.25810096	      1.78203993	     -1.62905048	    -13.08190160	    -12.48680195	     15.54234293	     47.33364687	      4.90579612	     -4.21422558	      6.47119056	     -2.10711279	      3.60486281	     12.80556941	    -15.38426324	     18.90462673	      0.01238483	      0.06429080	      0.36622056	      0.05509256	      0.99862122	      0.05902361	      0.01000000	      0.05134727	      0.60768366	      0.03030808	      0.47396701	      0.05260517	      0.07694563	      0.06428521	      1.00000000	      0.05425996	      0.01293340	      0.07137555	      0.08647987	      0.05285699	      0.12944159	      0.05070294	      0.51645636	      0.04473280	      0.99666356	      0.03908662	      0.87323913	      0.03227366
      0.15109746	      1.33224365	     -3.25852318	      1.78268688	     -1.62926159	    -13.08154077	    -12.48552005	     15.54080454	     47.33553770	      4.90326032	     -4.23007019	      6.46777689	     -2.11503510	      3.61171282	     12.83213147	    -15.38350162	     18.91192248	      0.01238483	      0.06429095	      0.36622056	      0.05509263	      0.99862122	      0.05902327	      0.01000000	      0.05134739	      0.60768366	      0.03030796	      0.47396701	      0.05260533	      0.07694563	      0.06428517	      1.00000000	      0.05426013	      0.01293340	      0.07137569	      0.08647987	      0.05285687	      0.12944159	      0.05070308	      0.51645636	      0.04473277	      0.99666356	      0.03908688	      0.87323913	      0.03227392
